<mxfile host="Electron" agent="Mozilla/5.0 (Windows NT 10.0; Win64; x64) AppleWebKit/537.36 (KHTML, like Gecko) draw.io/28.1.2 Chrome/138.0.7204.243 Electron/37.4.0 Safari/537.36" version="28.1.2">
  <diagram id="T4iM5JNEiDZyO0_GgNCu" name="ページ1">
    <mxGraphModel dx="820" dy="413" grid="1" gridSize="10" guides="1" tooltips="1" connect="1" arrows="1" fold="1" page="1" pageScale="1" pageWidth="827" pageHeight="1169" math="0" shadow="0">
      <root>
        <mxCell id="0" />
        <mxCell id="1" parent="0" />
        <mxCell id="GlTGsxxahrGcEjfsaQrb-3" value="&lt;div&gt;新規登録&lt;/div&gt;&lt;div&gt;ボタンを押す&lt;/div&gt;" style="ellipse;shape=umlControl;whiteSpace=wrap;html=1;" parent="1" vertex="1">
          <mxGeometry x="160" y="170" width="90" height="90" as="geometry" />
        </mxCell>
        <mxCell id="GUVljLoRKj9EQi6932B5-1" value="訪問者データ" style="ellipse;shape=umlEntity;whiteSpace=wrap;html=1;" vertex="1" parent="1">
          <mxGeometry x="490" y="170" width="80" height="80" as="geometry" />
        </mxCell>
        <mxCell id="GUVljLoRKj9EQi6932B5-3" value="訪問者&lt;div&gt;&lt;br&gt;&lt;/div&gt;" style="shape=umlActor;verticalLabelPosition=bottom;verticalAlign=top;html=1;" vertex="1" parent="1">
          <mxGeometry x="50" y="100" width="30" height="60" as="geometry" />
        </mxCell>
        <mxCell id="GUVljLoRKj9EQi6932B5-4" value="ログイン画面" style="shape=umlBoundary;whiteSpace=wrap;html=1;" vertex="1" parent="1">
          <mxGeometry x="150" y="70" width="100" height="80" as="geometry" />
        </mxCell>
        <mxCell id="GUVljLoRKj9EQi6932B5-13" value="" style="endArrow=classic;html=1;rounded=0;entryX=-0.032;entryY=0.504;entryDx=0;entryDy=0;entryPerimeter=0;" edge="1" parent="1" source="GUVljLoRKj9EQi6932B5-3" target="GUVljLoRKj9EQi6932B5-4">
          <mxGeometry width="50" height="50" relative="1" as="geometry">
            <mxPoint x="220" y="240" as="sourcePoint" />
            <mxPoint x="270" y="190" as="targetPoint" />
          </mxGeometry>
        </mxCell>
        <mxCell id="GUVljLoRKj9EQi6932B5-14" value="" style="endArrow=classic;html=1;rounded=0;entryX=0.524;entryY=0.029;entryDx=0;entryDy=0;entryPerimeter=0;exitX=0.572;exitY=1.009;exitDx=0;exitDy=0;exitPerimeter=0;" edge="1" parent="1" source="GUVljLoRKj9EQi6932B5-4" target="GlTGsxxahrGcEjfsaQrb-3">
          <mxGeometry width="50" height="50" relative="1" as="geometry">
            <mxPoint x="257" y="118" as="sourcePoint" />
            <mxPoint x="324" y="102" as="targetPoint" />
          </mxGeometry>
        </mxCell>
        <mxCell id="GUVljLoRKj9EQi6932B5-15" value="新規登録画面" style="shape=umlBoundary;whiteSpace=wrap;html=1;" vertex="1" parent="1">
          <mxGeometry x="150" y="310" width="100" height="80" as="geometry" />
        </mxCell>
        <mxCell id="GUVljLoRKj9EQi6932B5-16" value="" style="endArrow=classic;html=1;rounded=0;entryX=0.577;entryY=-0.012;entryDx=0;entryDy=0;entryPerimeter=0;exitX=0.542;exitY=1.007;exitDx=0;exitDy=0;exitPerimeter=0;" edge="1" parent="1" source="GlTGsxxahrGcEjfsaQrb-3" target="GUVljLoRKj9EQi6932B5-15">
          <mxGeometry width="50" height="50" relative="1" as="geometry">
            <mxPoint x="310" y="160" as="sourcePoint" />
            <mxPoint x="384" y="167" as="targetPoint" />
          </mxGeometry>
        </mxCell>
        <mxCell id="GUVljLoRKj9EQi6932B5-17" value="データを&lt;div&gt;入力&lt;/div&gt;" style="ellipse;shape=umlControl;whiteSpace=wrap;html=1;" vertex="1" parent="1">
          <mxGeometry x="339" y="175" width="80" height="80" as="geometry" />
        </mxCell>
        <mxCell id="GUVljLoRKj9EQi6932B5-18" value="" style="endArrow=classic;html=1;rounded=0;entryX=0.048;entryY=0.739;entryDx=0;entryDy=0;entryPerimeter=0;exitX=0.785;exitY=0.028;exitDx=0;exitDy=0;exitPerimeter=0;" edge="1" parent="1" source="GUVljLoRKj9EQi6932B5-15" target="GUVljLoRKj9EQi6932B5-17">
          <mxGeometry width="50" height="50" relative="1" as="geometry">
            <mxPoint x="300" y="230" as="sourcePoint" />
            <mxPoint x="290" y="205" as="targetPoint" />
          </mxGeometry>
        </mxCell>
        <mxCell id="GUVljLoRKj9EQi6932B5-19" value="エラー&lt;div&gt;メッセージ&lt;/div&gt;" style="ellipse;shape=umlControl;whiteSpace=wrap;html=1;" vertex="1" parent="1">
          <mxGeometry x="344" y="310" width="70" height="80" as="geometry" />
        </mxCell>
        <mxCell id="GUVljLoRKj9EQi6932B5-21" value="" style="endArrow=classic;html=1;rounded=0;entryX=0;entryY=0.5;entryDx=0;entryDy=0;exitX=0.995;exitY=0.486;exitDx=0;exitDy=0;exitPerimeter=0;" edge="1" parent="1" source="GUVljLoRKj9EQi6932B5-17" target="GUVljLoRKj9EQi6932B5-1">
          <mxGeometry width="50" height="50" relative="1" as="geometry">
            <mxPoint x="269" y="330" as="sourcePoint" />
            <mxPoint x="170" y="375" as="targetPoint" />
          </mxGeometry>
        </mxCell>
        <mxCell id="GUVljLoRKj9EQi6932B5-25" value="保存" style="edgeLabel;html=1;align=center;verticalAlign=middle;resizable=0;points=[];" vertex="1" connectable="0" parent="GUVljLoRKj9EQi6932B5-21">
          <mxGeometry x="0.023" y="-1" relative="1" as="geometry">
            <mxPoint as="offset" />
          </mxGeometry>
        </mxCell>
        <mxCell id="GUVljLoRKj9EQi6932B5-22" value="" style="endArrow=classic;html=1;rounded=0;entryX=0.476;entryY=0.076;entryDx=0;entryDy=0;entryPerimeter=0;exitX=0.476;exitY=0.999;exitDx=0;exitDy=0;exitPerimeter=0;" edge="1" parent="1" source="GUVljLoRKj9EQi6932B5-17" target="GUVljLoRKj9EQi6932B5-19">
          <mxGeometry width="50" height="50" relative="1" as="geometry">
            <mxPoint x="379" y="380" as="sourcePoint" />
            <mxPoint x="280" y="425" as="targetPoint" />
          </mxGeometry>
        </mxCell>
        <mxCell id="GUVljLoRKj9EQi6932B5-36" value="&lt;span style=&quot;font-size: 12px; background-color: rgb(236, 236, 236);&quot;&gt;空欄やユーザIDが被った&lt;/span&gt;" style="edgeLabel;html=1;align=center;verticalAlign=middle;resizable=0;points=[];" vertex="1" connectable="0" parent="GUVljLoRKj9EQi6932B5-22">
          <mxGeometry x="0.0223" y="-1" relative="1" as="geometry">
            <mxPoint as="offset" />
          </mxGeometry>
        </mxCell>
        <mxCell id="GUVljLoRKj9EQi6932B5-24" value="" style="endArrow=classic;html=1;rounded=0;entryX=1.021;entryY=0.486;entryDx=0;entryDy=0;entryPerimeter=0;exitX=0.021;exitY=0.498;exitDx=0;exitDy=0;exitPerimeter=0;" edge="1" parent="1" source="GUVljLoRKj9EQi6932B5-19" target="GUVljLoRKj9EQi6932B5-15">
          <mxGeometry width="50" height="50" relative="1" as="geometry">
            <mxPoint x="509" y="140" as="sourcePoint" />
            <mxPoint x="410" y="185" as="targetPoint" />
          </mxGeometry>
        </mxCell>
        <mxCell id="GUVljLoRKj9EQi6932B5-26" value="入力完了&lt;div&gt;メッセージ&lt;/div&gt;" style="ellipse;shape=umlControl;whiteSpace=wrap;html=1;" vertex="1" parent="1">
          <mxGeometry x="344" y="70" width="70" height="80" as="geometry" />
        </mxCell>
        <mxCell id="GUVljLoRKj9EQi6932B5-32" value="" style="endArrow=classic;html=1;rounded=0;entryX=0.993;entryY=0.496;entryDx=0;entryDy=0;entryPerimeter=0;exitX=0.011;exitY=0.502;exitDx=0;exitDy=0;exitPerimeter=0;" edge="1" parent="1" source="GUVljLoRKj9EQi6932B5-26" target="GUVljLoRKj9EQi6932B5-4">
          <mxGeometry width="50" height="50" relative="1" as="geometry">
            <mxPoint x="344" y="110" as="sourcePoint" />
            <mxPoint x="330" y="150" as="targetPoint" />
          </mxGeometry>
        </mxCell>
        <mxCell id="GUVljLoRKj9EQi6932B5-34" value="" style="endArrow=classic;html=1;rounded=0;entryX=0.951;entryY=0.681;entryDx=0;entryDy=0;entryPerimeter=0;exitX=0;exitY=0;exitDx=0;exitDy=0;" edge="1" parent="1" source="GUVljLoRKj9EQi6932B5-1" target="GUVljLoRKj9EQi6932B5-26">
          <mxGeometry width="50" height="50" relative="1" as="geometry">
            <mxPoint x="480" y="173" as="sourcePoint" />
            <mxPoint x="565" y="90" as="targetPoint" />
          </mxGeometry>
        </mxCell>
        <mxCell id="GUVljLoRKj9EQi6932B5-35" value="保存が確認できた" style="edgeLabel;html=1;align=center;verticalAlign=middle;resizable=0;points=[];" vertex="1" connectable="0" parent="GUVljLoRKj9EQi6932B5-34">
          <mxGeometry x="-0.3047" y="3" relative="1" as="geometry">
            <mxPoint x="-2" y="-11" as="offset" />
          </mxGeometry>
        </mxCell>
      </root>
    </mxGraphModel>
  </diagram>
</mxfile>
